<?xml version="1.0" encoding="utf-8"?>
<!-- Generator: Adobe Illustrator 17.1.0, SVG Export Plug-In . SVG Version: 6.00 Build 0)  -->
<!DOCTYPE svg PUBLIC "-//W3C//DTD SVG 1.1//EN" "http://www.w3.org/Graphics/SVG/1.1/DTD/svg11.dtd">
<svg version="1.1" id="Layer_1" xmlns="http://www.w3.org/2000/svg" xmlns:xlink="http://www.w3.org/1999/xlink" x="0px" y="0px"
	 viewBox="0 0 1834 435" enable-background="new 0 0 1834 435" xml:space="preserve">
<circle fill="none" stroke="#000000" stroke-width="3" stroke-miterlimit="10" cx="1065.7" cy="188.1" r="61"/>
<g>
	<path fill="none" stroke="#000000" stroke-width="3" stroke-miterlimit="10" d="M1080.5,98.7c0,8.8-6.8,16-15,16s-15-7.2-15-16
		V83.5c0-8.8,6.8-16,15-16s15,7.2,15,16V98.7z"/>
</g>
<g>
	<path fill="none" stroke="#000000" stroke-width="3" stroke-miterlimit="10" d="M1080.5,292.7c0,8.8-6.8,16-15,16s-15-7.2-15-16
		v-15.2c0-8.8,6.8-16,15-16s15,7.2,15,16V292.7z"/>
</g>
<g>
	<path fill="none" stroke="#000000" stroke-width="3" stroke-miterlimit="10" d="M1155.1,203.5c-8.8,0-16-6.8-16-15s7.2-15,16-15
		h15.2c8.8,0,16,6.8,16,15s-7.2,15-16,15H1155.1z"/>
</g>
<g>
	<path fill="none" stroke="#000000" stroke-width="3" stroke-miterlimit="10" d="M961.1,203.5c-8.8,0-16-6.8-16-15s7.2-15,16-15
		h15.2c8.8,0,16,6.8,16,15s-7.2,15-16,15H961.1z"/>
</g>
<g>
	<path fill="none" stroke="#000000" stroke-width="3" stroke-miterlimit="10" d="M1118.3,261.9c-6.2-6.2-6.5-16.1-0.7-21.9
		c5.8-5.8,15.7-5.5,21.9,0.7l10.7,10.7c6.2,6.2,6.5,16.1,0.7,21.9c-5.8,5.8-15.7,5.5-21.9-0.7L1118.3,261.9z"/>
</g>
<g>
	<path fill="none" stroke="#000000" stroke-width="3" stroke-miterlimit="10" d="M981.1,124.7c-6.2-6.2-6.5-16.1-0.7-21.9
		c5.8-5.8,15.7-5.5,21.9,0.7l10.7,10.7c6.2,6.2,6.5,16.1,0.7,21.9s-15.7,5.5-21.9-0.7L981.1,124.7z"/>
</g>
<g>
	<path fill="none" stroke="#000000" stroke-width="3" stroke-miterlimit="10" d="M991.8,240.7c6.2-6.2,16.1-6.5,21.9-0.7
		c5.8,5.8,5.5,15.7-0.7,21.9l-10.7,10.7c-6.2,6.2-16.1,6.5-21.9,0.7c-5.8-5.8-5.5-15.7,0.7-21.9L991.8,240.7z"/>
</g>
<g>
	<path fill="none" stroke="#000000" stroke-width="3" stroke-miterlimit="10" d="M1129,103.5c6.2-6.2,16.1-6.5,21.9-0.7
		c5.8,5.8,5.5,15.7-0.7,21.9l-10.7,10.7c-6.2,6.2-16.1,6.5-21.9,0.7s-5.5-15.7,0.7-21.9L1129,103.5z"/>
</g>
<g>
	<path fill="none" stroke="#000000" stroke-width="3" stroke-miterlimit="10" d="M793.5,98.7c0,8.8-6.8,16-15,16s-15-7.2-15-16V83.5
		c0-8.8,6.8-16,15-16s15,7.2,15,16V98.7z"/>
</g>
<g>
	<path fill="none" stroke="#000000" stroke-width="3" stroke-miterlimit="10" d="M868.1,203.5c-8.8,0-16-6.8-16-15s7.2-15,16-15
		h15.2c8.8,0,16,6.8,16,15s-7.2,15-16,15H868.1z"/>
</g>
<g>
	<path fill="none" stroke="#000000" stroke-width="3" stroke-miterlimit="10" d="M674.1,203.5c-8.8,0-16-6.8-16-15s7.2-15,16-15
		h15.2c8.8,0,16,6.8,16,15s-7.2,15-16,15H674.1z"/>
</g>
<g>
	<path fill="none" stroke="#000000" stroke-width="3" stroke-miterlimit="10" d="M694.1,124.7c-6.2-6.2-6.5-16.1-0.7-21.9
		c5.8-5.8,15.7-5.5,21.9,0.7l10.7,10.7c6.2,6.2,6.5,16.1,0.7,21.9s-15.7,5.5-21.9-0.7L694.1,124.7z"/>
</g>
<g>
	<path fill="none" stroke="#000000" stroke-width="3" stroke-miterlimit="10" d="M842,103.5c6.2-6.2,16.1-6.5,21.9-0.7
		c5.8,5.8,5.5,15.7-0.7,21.9l-10.7,10.7c-6.2,6.2-16.1,6.5-21.9,0.7s-5.5-15.7,0.7-21.9L842,103.5z"/>
</g>
<g>
	<path fill="none" stroke="#000000" stroke-width="3" stroke-miterlimit="10" d="M1652.5,98.7c0,8.8-6.8,16-15,16s-15-7.2-15-16
		V83.5c0-8.8,6.8-16,15-16s15,7.2,15,16V98.7z"/>
</g>
<g>
	<path fill="none" stroke="#000000" stroke-width="3" stroke-miterlimit="10" d="M1727.1,203.5c-8.8,0-16-6.8-16-15s7.2-15,16-15
		h15.2c8.8,0,16,6.8,16,15s-7.2,15-16,15H1727.1z"/>
</g>
<g>
	<path fill="none" stroke="#000000" stroke-width="3" stroke-miterlimit="10" d="M1533.1,203.5c-8.8,0-16-6.8-16-15s7.2-15,16-15
		h15.2c8.8,0,16,6.8,16,15s-7.2,15-16,15H1533.1z"/>
</g>
<g>
	<path fill="none" stroke="#000000" stroke-width="3" stroke-miterlimit="10" d="M1553.1,124.7c-6.2-6.2-6.5-16.1-0.7-21.9
		c5.8-5.8,15.7-5.5,21.9,0.7l10.7,10.7c6.2,6.2,6.5,16.1,0.7,21.9c-5.8,5.8-15.7,5.5-21.9-0.7L1553.1,124.7z"/>
</g>
<g>
	<path fill="none" stroke="#000000" stroke-width="3" stroke-miterlimit="10" d="M1563.8,240.7c6.2-6.2,16.1-6.5,21.9-0.7
		c5.8,5.8,5.5,15.7-0.7,21.9l-10.7,10.7c-6.2,6.2-16.1,6.5-21.9,0.7c-5.8-5.8-5.5-15.7,0.7-21.9L1563.8,240.7z"/>
</g>
<g>
	<path fill="none" stroke="#000000" stroke-width="3" stroke-miterlimit="10" d="M1701,103.5c6.2-6.2,16.1-6.5,21.9-0.7
		c5.8,5.8,5.5,15.7-0.7,21.9l-10.7,10.7c-6.2,6.2-16.1,6.5-21.9,0.7s-5.5-15.7,0.7-21.9L1701,103.5z"/>
</g>
<path fill="none" stroke="#000000" stroke-width="3" stroke-miterlimit="10" d="M1278.7,188.1c0-33.7,27.3-61,61-61
	c33.7,0,61,27.3,61,61"/>
<g>
	<path fill="none" stroke="#000000" stroke-width="3" stroke-miterlimit="10" d="M1354.5,98.7c0,8.8-6.8,16-15,16s-15-7.2-15-16
		V83.5c0-8.8,6.8-16,15-16s15,7.2,15,16V98.7z"/>
</g>
<path fill="none" stroke="#000000" stroke-width="3" stroke-miterlimit="10" d="M1278.7,188.1c0-33.7,27.3-61,61-61
	c33.7,0,61,27.3,61,61"/>
<g>
	<path fill="none" stroke="#000000" stroke-width="3" stroke-miterlimit="10" d="M1429.1,203.5c-8.8,0-16-6.8-16-15s7.2-15,16-15
		h15.2c8.8,0,16,6.8,16,15s-7.2,15-16,15H1429.1z"/>
</g>
<g>
	<path fill="none" stroke="#000000" stroke-width="3" stroke-miterlimit="10" d="M1235.1,203.5c-8.8,0-16-6.8-16-15s7.2-15,16-15
		h15.2c8.8,0,16,6.8,16,15s-7.2,15-16,15H1235.1z"/>
</g>
<path fill="none" stroke="#000000" stroke-width="3" stroke-miterlimit="10" d="M1296.5,144.9c23.8-23.8,62.4-23.8,86.3,0
	c18.6,18.6,22.7,46.3,12.2,68.8"/>
<g>
	<path fill="none" stroke="#000000" stroke-width="3" stroke-miterlimit="10" d="M1255.1,124.7c-6.2-6.2-6.5-16.1-0.7-21.9
		c5.8-5.8,15.7-5.5,21.9,0.7l10.7,10.7c6.2,6.2,6.5,16.1,0.7,21.9c-5.8,5.8-15.7,5.5-21.9-0.7L1255.1,124.7z"/>
</g>
<path fill="none" stroke="#000000" stroke-width="3" stroke-miterlimit="10" d="M1284.3,213.8c-10.5-22.6-6.4-50.2,12.2-68.8
	c23.8-23.8,62.4-23.8,86.3,0"/>
<g>
	<path fill="none" stroke="#000000" stroke-width="3" stroke-miterlimit="10" d="M1403,103.5c6.2-6.2,16.1-6.5,21.9-0.7
		c5.8,5.8,5.5,15.7-0.7,21.9l-10.7,10.7c-6.2,6.2-16.1,6.5-21.9,0.7s-5.5-15.7,0.7-21.9L1403,103.5z"/>
</g>
<line fill="none" stroke="#000000" stroke-width="3" stroke-miterlimit="10" x1="1284" y1="213.5" x2="1395" y2="213.5"/>
<line fill="none" stroke="#000000" stroke-width="3" stroke-miterlimit="10" x1="1287" y1="222.5" x2="1392" y2="222.5"/>
<line fill="none" stroke="#000000" stroke-width="3" stroke-miterlimit="10" x1="1287" y1="222.5" x2="1336" y2="240.3"/>
<line fill="none" stroke="#000000" stroke-width="3" stroke-miterlimit="10" x1="1392" y1="222.5" x2="1347.5" y2="231.2"/>
<line fill="none" stroke="#000000" stroke-width="3" stroke-miterlimit="10" x1="1347.5" y1="231.2" x2="1387.5" y2="241.3"/>
<line fill="none" stroke="#000000" stroke-width="3" stroke-miterlimit="10" x1="1387.5" y1="241.3" x2="1340.8" y2="253.2"/>
<line fill="none" stroke="#000000" stroke-width="3" stroke-miterlimit="10" x1="1334.8" y1="240.3" x2="1305.5" y2="247.3"/>
<line fill="none" stroke="#000000" stroke-width="3" stroke-miterlimit="10" x1="1305.5" y1="247.3" x2="1345" y2="268.8"/>
<line fill="none" stroke="#000000" stroke-width="3" stroke-miterlimit="10" x1="1340.8" y1="253.2" x2="1345" y2="268.8"/>
<path fill="none" stroke="#000000" stroke-width="3" stroke-miterlimit="10" d="M1634.9,225c1.3,0,2.6,0.1,3.9,0.2
	c3.1-7.6,8.5-12.6,14.6-12.6c2.4,0,4.6,0.7,6.7,2.1c3.6-9.9,12.3-17,22.4-17c5.4,0,10.3,2,14.3,5.3c1.2-4.8,1.9-9.8,1.9-15
	c0-33.7-27.3-61-61-61c-33.7,0-61,27.3-61,61c0,23.3,13.1,43.6,32.3,53.8C1612.1,232.2,1622.5,225,1634.9,225z"/>
<path fill="none" stroke="#000000" stroke-width="3" stroke-miterlimit="10" d="M778.7,211.7c19.4,0,37.4,2.8,52.5,7.5
	c5.4-9.1,8.5-19.7,8.5-31.1c0-33.7-27.3-61-61-61s-61,27.3-61,61c0,11.4,3.1,22,8.5,31.1C741.3,214.4,759.3,211.7,778.7,211.7z"/>
<path fill="#FFFFFF" stroke="#000000" stroke-width="3" stroke-miterlimit="10" d="M778.7,340"/>
<path fill="#FFFFFF" stroke="#000000" stroke-width="3" stroke-miterlimit="10" d="M874.5,281.5"/>
<path fill="#FFFFFF" stroke="#000000" stroke-width="3" stroke-miterlimit="10" d="M682.8,281.5"/>
<path fill="#FFFFFF" stroke="#000000" stroke-width="3" stroke-miterlimit="10" d="M778.7,348.7"/>
<path fill="#FFFFFF" stroke="#000000" stroke-width="3" stroke-miterlimit="10" d="M682.8,293.8"/>
<g>
	<path fill="none" stroke="#000000" stroke-width="3" stroke-miterlimit="10" d="M698.9,247.1c17.2-15.7,46.5-26.1,79.8-26.1
		c33.2,0,62.5,10.3,79.7,26"/>
	<path fill="none" stroke="#000000" stroke-width="3" stroke-miterlimit="10" d="M703.4,257.8c17.6-12.7,44.7-20.8,75.2-20.8
		c30.4,0,57.5,8.1,75.1,20.7"/>
	<line fill="none" stroke="#000000" stroke-width="3" stroke-miterlimit="10" x1="698.9" y1="247.1" x2="703.4" y2="257.9"/>
	<line fill="none" stroke="#000000" stroke-width="3" stroke-miterlimit="10" x1="858.3" y1="247.1" x2="853.7" y2="257.7"/>
</g>
<g>
	<path fill="none" stroke="#000000" stroke-width="3" stroke-miterlimit="10" d="M495.5,98.7c0,8.8-6.8,16-15,16s-15-7.2-15-16V83.5
		c0-8.8,6.8-16,15-16s15,7.2,15,16V98.7z"/>
</g>
<g>
	<path fill="none" stroke="#000000" stroke-width="3" stroke-miterlimit="10" d="M396.1,124.7c-6.2-6.2-6.5-16.1-0.7-21.9
		c5.8-5.8,15.7-5.5,21.9,0.7l10.7,10.7c6.2,6.2,6.5,16.1,0.7,21.9c-5.8,5.8-15.7,5.5-21.9-0.7L396.1,124.7z"/>
</g>
<g>
	<path fill="none" stroke="#000000" stroke-width="3" stroke-miterlimit="10" d="M544,103.5c6.2-6.2,16.1-6.5,21.9-0.7
		c5.8,5.8,5.5,15.7-0.7,21.9l-10.7,10.7c-6.2,6.2-16.1,6.5-21.9,0.7s-5.5-15.7,0.7-21.9L544,103.5z"/>
</g>
<path fill="none" stroke="#000000" stroke-width="3" stroke-miterlimit="10" d="M481.1,137.1c14.4,0,28.2,2.2,40.7,6
	c-10.9-10-25.3-16-41.2-16c-16.1,0-30.8,6.3-41.7,16.5C451.9,139.4,466.2,137.1,481.1,137.1z"/>
<path fill="none" stroke="#000000" stroke-width="3" stroke-miterlimit="10" d="M589.1,228.5c0-0.1,0-0.3,0-0.4
	c0-45.3-48.3-82-108-82s-108,36.7-108,82c0,0.1,0,0.3,0,0.4H589.1z"/>
<path fill="none" stroke="#000000" stroke-width="3" stroke-miterlimit="10" d="M1741.5,260.8c0-13.9-11.9-25.4-27-26.6
	c-2.4-14.1-13.5-24.8-26.8-24.8c-11.4,0-21.2,7.9-25.2,19.1c-2.3-1.5-4.8-2.4-7.5-2.4c-6.9,0-12.9,5.6-16.4,14.1
	c-1.4-0.2-2.9-0.3-4.3-0.3c-16.7,0-30.3,11.5-30.3,25.8c0,14.1,13.2,25.5,29.7,25.8c10.3,2.2,23.7,3.5,38.3,3.5
	c31.4,0,57.1-6.1,58.9-13.8C1737.4,276.3,1741.5,269,1741.5,260.8z"/>
<g>
	<path fill="none" stroke="#000000" stroke-width="3" stroke-miterlimit="10" d="M139.9,240.9c6.3-2.2,10.3-4.8,11-7.7
		c6.5-4.9,10.6-12.3,10.6-20.5c0-13.9-11.9-25.4-27-26.6c-2.4-14.1-13.5-24.8-26.8-24.8c-11.4,0-21.2,7.9-25.2,19.1
		c-2.3-1.5-4.8-2.4-7.5-2.4c-6.9,0-12.9,5.6-16.4,14.1c-1.4-0.2-2.9-0.3-4.3-0.3c-16.7,0-30.3,11.5-30.3,25.8
		c0,14.1,13.2,25.5,29.7,25.8c3.9,0.8,8.3,1.5,13,2.1c18,28.4,49.6,47.2,85.7,47.2c13.4,0,26.3-2.6,38-7.4
		C168.9,276.8,151.1,260.9,139.9,240.9z"/>
	<path fill="none" stroke="#000000" stroke-width="3" stroke-miterlimit="10" d="M57.6,176.2c3.5-8.5,9.5-14.1,16.4-14.1
		c2.7,0,5.2,0.8,7.5,2.4c4.1-11.2,13.8-19.1,25.2-19.1c10.8,0,20.1,7,24.5,17.3c8.8-29.6,30.8-53.6,59.1-65.1
		c-11.7-4.8-24.6-7.4-38-7.4c-50.7,0-92.7,37.2-100.1,85.8c0.3,0,0.6,0,1,0C54.7,175.9,56.2,176,57.6,176.2z"/>
</g>
</svg>
